<svg xmlns="http://www.w3.org/2000/svg" xmlns:xlink="http://www.w3.org/1999/xlink" width="16" height="16" viewBox="0 0 16 16">

    <g id="icon-arrow-back">
        <path id="Path_1" data-name="Path 1" d="M6.7,12.3,2.9,8.5H15v-1H2.9L6.7,3.7,6,3,1,8l5,5Z" fill-rule="evenodd"/>
    </g>

    <g id="icon-clock">
        <path d="M8,15a7,7,0,1,1,7-7,7,7,0,0,1-7,7ZM8,2a6,6,0,1,0,6,6A6,6,0,0,0,8,2Zm2.3,9L7.5,8.2V3.5h1V7.79L11,10.3Z" fill-rule="evenodd"/>
    </g>

    <!--TREE-->

    <g id="icon-folder-closed">
        <path d="M1,0H5L6,2h8V12H0V2Z" transform="translate(1 2)" fill="#e5c785" fill-rule="evenodd"/>
        <path d="M5,0,6,2h8V12H0V2L1,0ZM3,3V2H4.881l-.5-1H1.618L1,2.235V11H13V3Z" transform="translate(1 2)" fill="#b98c5a"/>
    </g>

    <g id="icon-folder-open">
        <path d="M5,0,6,2h8V3.995h2l-1.991,8H0V2L1,0Z" transform="translate(0 2)" fill="#b98d5a"/>
        <path d="M14.72,6.995H2.788L1.281,13H13.227Z" fill="#e5c985"/>
        <path d="M4.381,1H1.618L1,2.235V8.013L2.008,4H13V3H5V2.235L4.881,2Z" transform="translate(0 2)" fill="#efdfb9"/>
    </g>

    <g id="icon-tree-chevron">
        <path d="M8,11,3,6l.7-.7L8,9.6l4.3-4.3L13,6Z" transform="translate(-0.3 16) rotate(-90)" fill-rule="evenodd"/>
    </g>

    <g id="icon-tree-file" >
        <rect width="10" height="12" transform="translate(3 2)" fill="#fff"/>
        <rect width="6" height="1" transform="translate(5 7)" fill="#525252"/>
        <rect width="6" height="1" transform="translate(5 4)" fill="#525252"/>
        <rect width="6" height="1" transform="translate(5 10)" fill="#525252"/>
        <path d="M14,1V15H2V1ZM13,2H3V14H13Z" fill="#979797"/>
    </g>

    <!--SIZING-->

    <g id="icon-sizing-down">
        <path d="M32.075-8.044,28.037-4.006,24-8.044Zm-2.415,1H26.414l1.623,1.623Z" transform="translate(-20 14)"/>
    </g>

    <g id="icon-sizing-max">
        <path d="M14,2V14H2V2ZM13,6H3v7H13Zm.064-3H3.083V5h9.98Z" fill-rule="evenodd"/>
    </g>

    <g id="icon-sizing-min">
        <path d="M14,6H2V2H14ZM13,3H3V5H13Z" transform="translate(0 2)" fill-rule="evenodd"/>
    </g>

    <g id="icon-tab-close">
        <path d="M12,4.7,11.3,4,8,7.3,4.7,4,4,4.7,7.3,8,4,11.3l.7.7L8,8.7,11.3,12l.7-.7L8.7,8Z" fill-rule="evenodd"/>
    </g>

    <!-- TOOLS-->
    <g id="icon-tools-arrows" >
        <path data-name="Path 7" d="M4.056-5.025V-8.587H9v-1H4.056V-13.1L.019-9.062Zm-1-2.415L1.433-9.062l1.623-1.622Zm6.963,6.415,4.037-4.037L10.019-9.1v3.513H5v1h5.019Zm1-2.416V-6.685l1.623,1.622Z" transform="translate(0.981 15.1)"/>
    </g>

    <g id="icon-tools-down">
        <path d="M32.075-8.044,28.037-4.006,24-8.044Zm-2.415,1H26.414l1.623,1.623Z" transform="translate(-20 14)"/>
    </g>

    <g id="icon-tools-folder">
        <path d="M5,0,6,2h8V3.995h2l-1.991,8H0V2L1,0Zm9.72,4.995H2.788L1.281,11H13.227ZM4.381,1H1.618L1,2.235V8.013L2.008,4H13V3H5V2.235L4.881,2Z" transform="translate(0 2)"/>
    </g>

    <g id="icon-tools-sizing">
        <path d="M11,1V4h4V15H4V11H1V1Zm3,4H5v9h9ZM10,2H2v8H4V4h6Zm2,7v1H7V9Z"/>
    </g>

    <g id="icon-zoom-plus">
        <path fill-rule="evenodd" clip-rule="evenodd" d="M8 5H6V3H5V5H3V6H5V8H6V6H8V5ZM9.7 9C10.5 8 11 6.8 11 5.5C11 2.5 8.5 0 5.5 0C2.5 0 0 2.5 0 5.5C0 8.5 2.5 11 5.5 11C6.8 11 8 10.5 9 9.7L12.8 13.5L13.5 12.8L9.7 9ZM5.5 10C3 10 1 8 1 5.5C1 3 3 1 5.5 1C8 1 10 3 10 5.5C10 8 8 10 5.5 10Z" />
    </g>

    <g id="icon-zoom-minus">
        <path fill-rule="evenodd" clip-rule="evenodd" d="M3 5H8V6H3V5ZM9.7 9C10.5 8 11 6.8 11 5.5C11 2.5 8.5 0 5.5 0C2.5 0 0 2.5 0 5.5C0 8.5 2.5 11 5.5 11C6.8 11 8 10.5 9 9.7L12.8 13.5L13.5 12.8L9.7 9ZM5.5 10C3 10 1 8 1 5.5C1 3 3 1 5.5 1C8 1 10 3 10 5.5C10 8 8 10 5.5 10Z" />
    </g>

</svg>
