<svg viewBox="0 0 24 24" fill="none" xmlns="http://www.w3.org/2000/svg">

    <g id="icon-node-http">
        <path d="M7 6H8L4 18H3L7 6Z" fill="#6F6F6F" />
        <path d="M12 6H13L9 18H8L12 6Z" fill="#6F6F6F" />
        <path d="M13 17H12V18H13V17Z" fill="#6F6F6F" />
        <path d="M17 17H16V18H17V17Z" fill="#6F6F6F" />
        <path d="M21 17H20V18H21V17Z" fill="#6F6F6F" />
    </g>

    <g id="icon-node-mapping">
        <path d="M4 14V17H20V14H21V18H3V14H4ZM4 12V13H0V12H4ZM24 12V13H20V12H24ZM21 7V11H20V8H4V11H3V7H21Z"
            fill="#6F6F6F" />
        <path d="M19 9H5V16H19V9Z" fill="#84CEFF" />
    </g>

</svg>
